<svg xmlns="http://www.w3.org/2000/svg" width="11.437" height="13.071" viewBox="0 0 11.437 13.071"><defs><style>.a{fill:#fff;}</style></defs><path class="a" d="M0,11.846a1.226,1.226,0,0,0,1.225,1.225h8.986a1.226,1.226,0,0,0,1.225-1.225V4.9H0Zm8.17-5a.307.307,0,0,1,.306-.306H9.5a.307.307,0,0,1,.306.306V7.863A.307.307,0,0,1,9.5,8.17H8.476a.307.307,0,0,1-.306-.306Zm0,3.268A.307.307,0,0,1,8.476,9.8H9.5a.307.307,0,0,1,.306.306v1.021a.307.307,0,0,1-.306.306H8.476a.307.307,0,0,1-.306-.306ZM4.9,6.842a.307.307,0,0,1,.306-.306H6.229a.307.307,0,0,1,.306.306V7.863a.307.307,0,0,1-.306.306H5.208A.307.307,0,0,1,4.9,7.863Zm0,3.268A.307.307,0,0,1,5.208,9.8H6.229a.307.307,0,0,1,.306.306v1.021a.307.307,0,0,1-.306.306H5.208a.307.307,0,0,1-.306-.306ZM1.634,6.842a.307.307,0,0,1,.306-.306H2.961a.307.307,0,0,1,.306.306V7.863a.307.307,0,0,1-.306.306H1.94a.307.307,0,0,1-.306-.306Zm0,3.268A.307.307,0,0,1,1.94,9.8H2.961a.307.307,0,0,1,.306.306v1.021a.307.307,0,0,1-.306.306H1.94a.307.307,0,0,1-.306-.306Zm8.578-8.476H8.986V.408A.41.41,0,0,0,8.578,0H7.761a.41.41,0,0,0-.408.408V1.634H4.085V.408A.41.41,0,0,0,3.676,0H2.859a.41.41,0,0,0-.408.408V1.634H1.225A1.226,1.226,0,0,0,0,2.859V4.085H11.437V2.859A1.226,1.226,0,0,0,10.212,1.634Z"/></svg>