<?xml version="1.0" encoding="utf-8"?>
<!-- Generator: Adobe Illustrator 24.1.0, SVG Export Plug-In . SVG Version: 6.00 Build 0)  -->
<svg version="1.1" id="Capa_1" xmlns="http://www.w3.org/2000/svg" xmlns:xlink="http://www.w3.org/1999/xlink" x="0px" y="0px"
	 viewBox="0 0 24.4 18.2" style="enable-background:new 0 0 24.4 18.2;" xml:space="preserve">
<style type="text/css">
	.st0{fill:#FFFFFF;}
</style>
<path class="st0" d="M8.3,17.8L0.4,9.9c-0.5-0.5-0.5-1.2,0-1.7c0,0,0,0,0,0l1.7-1.7C2.6,6,3.3,6,3.8,6.4c0,0,0,0,0,0l5.3,5.3
	L20.6,0.4c0.5-0.5,1.2-0.5,1.7,0c0,0,0,0,0,0L24,2.1c0.5,0.5,0.5,1.2,0,1.7c0,0,0,0,0,0l-14,14C9.5,18.3,8.8,18.3,8.3,17.8
	C8.3,17.8,8.3,17.8,8.3,17.8z"/>
</svg>
