<svg xmlns="http://www.w3.org/2000/svg" width="16.3" height="18.629" viewBox="0 0 16.3 18.629"><defs><style>.a{fill:#383943;}</style></defs><path class="a" d="M0,16.883a1.747,1.747,0,0,0,1.746,1.746H14.554A1.747,1.747,0,0,0,16.3,16.883v-9.9H0ZM11.643,9.751a.438.438,0,0,1,.437-.437h1.455a.438.438,0,0,1,.437.437v1.455a.438.438,0,0,1-.437.437H12.08a.438.438,0,0,1-.437-.437Zm0,4.657a.438.438,0,0,1,.437-.437h1.455a.438.438,0,0,1,.437.437v1.455a.438.438,0,0,1-.437.437H12.08a.438.438,0,0,1-.437-.437ZM6.986,9.751a.438.438,0,0,1,.437-.437H8.878a.438.438,0,0,1,.437.437v1.455a.438.438,0,0,1-.437.437H7.423a.438.438,0,0,1-.437-.437Zm0,4.657a.438.438,0,0,1,.437-.437H8.878a.438.438,0,0,1,.437.437v1.455a.438.438,0,0,1-.437.437H7.423a.438.438,0,0,1-.437-.437ZM2.329,9.751a.438.438,0,0,1,.437-.437H4.221a.438.438,0,0,1,.437.437v1.455a.438.438,0,0,1-.437.437H2.765a.438.438,0,0,1-.437-.437Zm0,4.657a.438.438,0,0,1,.437-.437H4.221a.438.438,0,0,1,.437.437v1.455a.438.438,0,0,1-.437.437H2.765a.438.438,0,0,1-.437-.437ZM14.554,2.329H12.808V.582A.584.584,0,0,0,12.225,0H11.061a.584.584,0,0,0-.582.582V2.329H5.822V.582A.584.584,0,0,0,5.239,0H4.075a.584.584,0,0,0-.582.582V2.329H1.746A1.747,1.747,0,0,0,0,4.075V5.822H16.3V4.075A1.747,1.747,0,0,0,14.554,2.329Z"/></svg>