<?xml version="1.0" encoding="utf-8"?>
<!-- Generator: Adobe Illustrator 24.1.0, SVG Export Plug-In . SVG Version: 6.00 Build 0)  -->
<svg version="1.1" id="Capa_1" xmlns="http://www.w3.org/2000/svg" xmlns:xlink="http://www.w3.org/1999/xlink" x="0px" y="0px"
	 viewBox="0 0 17 15.1" style="enable-background:new 0 0 17 15.1;" xml:space="preserve">
<style type="text/css">
	.st0{fill:#443182;}
</style>
<path class="st0" d="M15.6,8.9l1.4-6.1C17,2.4,16.8,2,16.4,1.9c-0.1,0-0.1,0-0.2,0H4.7L4.4,0.6C4.4,0.2,4.1,0,3.7,0h-3
	C0.3,0,0,0.3,0,0.7c0,0,0,0,0,0v0.5c0,0.4,0.3,0.7,0.7,0.7l0,0h2.1L4.8,12c-0.8,0.5-1.1,1.5-0.6,2.3c0.5,0.8,1.5,1.1,2.3,0.6
	s1.1-1.5,0.6-2.3c-0.1-0.1-0.2-0.3-0.3-0.4H13c-0.7,0.6-0.7,1.7,0,2.3c0.6,0.7,1.7,0.7,2.3,0c0.7-0.6,0.7-1.7,0-2.3
	c-0.1-0.1-0.3-0.2-0.5-0.3l0.2-0.7c0.1-0.4-0.2-0.8-0.5-0.8c-0.1,0-0.1,0-0.2,0H6.4L6.2,9.4h8.6C15.2,9.4,15.5,9.2,15.6,8.9z"/>
</svg>
