<svg xmlns="http://www.w3.org/2000/svg" width="24.933" height="24.928" viewBox="0 0 24.933 24.928"><defs><style>.a{fill:#443182;}</style></defs><path class="a" d="M12.464,8.31A6.391,6.391,0,1,0,18.855,14.7,6.381,6.381,0,0,0,12.464,8.31Zm0,10.546A4.155,4.155,0,1,1,16.619,14.7,4.163,4.163,0,0,1,12.464,18.857ZM20.607,8.049a1.491,1.491,0,1,1-1.491-1.491A1.487,1.487,0,0,1,20.607,8.049ZM24.84,9.562a7.377,7.377,0,0,0-2.014-5.223A7.426,7.426,0,0,0,17.6,2.325c-2.058-.117-8.227-.117-10.285,0A7.415,7.415,0,0,0,2.1,4.333,7.4,7.4,0,0,0,.082,9.556c-.117,2.058-.117,8.227,0,10.285A7.377,7.377,0,0,0,2.1,25.064a7.435,7.435,0,0,0,5.223,2.014c2.058.117,8.227.117,10.285,0a7.377,7.377,0,0,0,5.223-2.014,7.426,7.426,0,0,0,2.014-5.223c.117-2.058.117-8.221,0-10.279ZM22.182,22.05a4.207,4.207,0,0,1-2.37,2.37c-1.641.651-5.535.5-7.348.5s-5.713.145-7.348-.5a4.207,4.207,0,0,1-2.37-2.37c-.651-1.641-.5-5.535-.5-7.348s-.145-5.713.5-7.348a4.207,4.207,0,0,1,2.37-2.37c1.641-.651,5.535-.5,7.348-.5s5.713-.145,7.348.5a4.207,4.207,0,0,1,2.37,2.37c.651,1.641.5,5.535.5,7.348S22.832,20.414,22.182,22.05Z" transform="translate(0.005 -2.238)"/></svg>