<svg xmlns="http://www.w3.org/2000/svg" width="206.538" height="149.773" viewBox="0 0 206.538 149.773"><defs><style>.a{fill:#ffe734;}.b{fill:#e50019;}.c{fill:#fff;}.d{fill:#1a1818;}.e{fill:#ff7702;}.f{fill:#9961c9;}</style></defs><g transform="translate(-1012.785 -93.281)"><circle class="a" cx="41.246" cy="41.246" r="41.246" transform="translate(1122.169 160.563)"/><g transform="translate(1148.983 123.87)"><path d="M29.478,29.988l61.928,9.971a.718.718,0,0,1,.572.769c.039,1.074,2.118,47.72,2.118,47.72a1.64,1.64,0,0,1-.7,1.113.875.875,0,0,1,.092.393c.015,1.168-.174,5.949-.162,6.505A2.367,2.367,0,0,1,91.058,99.1H26.722c-.892,0-2.966-.516-2.966-3.691.067-1.4.552-62.188.552-62.188V32.106c0-.662.647-.97,2.356-1.709a8.613,8.613,0,0,1,2.136-.692C29.287,29.658,29.208,29.779,29.478,29.988Z" transform="translate(-23.756 -29.695)"/><path class="b" d="M81.845,530.411l63.19,1.576.178,3.756-6.9.356a.658.658,0,0,0-.422.174.585.585,0,0,0-.115.4l-.014,5.8-55.919-.4Z" transform="translate(-75.661 -477.106)"/><path class="c" d="M616.2,595.528l-.013-4.906,5.36-.307Z" transform="translate(-553.121 -530.633)"/><path class="c" d="M81.908,37.646l-.062,52.459,63.191,1.576L143,47.843Z" transform="translate(-75.661 -36.8)"/><path d="M451.389,124.684a1.807,1.807,0,0,1-3-1.754,1.578,1.578,0,0,1,2.15-.4A1.642,1.642,0,0,1,451.389,124.684Z" transform="translate(-403.08 -112.441)"/><path d="M254.694,88.576a1.446,1.446,0,0,1-.256,2.1,1.873,1.873,0,0,1-2.388-.624,1.534,1.534,0,0,1,.3-2.175A1.852,1.852,0,0,1,254.694,88.576Z" transform="translate(-227.467 -81.514)"/><g transform="translate(17.157 44.357)"><path class="d" d="M225.278,446.358l1.618.065v.329l-1.242-.049v.808l1.207.046v.329l-1.207-.046v1.091l1.242.045v.329l-1.618-.057Z" transform="translate(-220.981 -446.358)"/><path class="d" d="M246.145,449.748l.915.033v.327l-1.29-.046v-2.878l.375.015Z" transform="translate(-239.291 -447.097)"/><path class="d" d="M273.277,448.621v.8l1.047.04v.326l-1.047-.04v1.4l-.376-.013v-2.864l1.458.059v.326Z" transform="translate(-263.534 -448.075)"/><path class="d" d="M291.929,451.9l-.376-.013v-2.854l.376.015Z" transform="translate(-280.201 -448.747)"/><path class="d" d="M300.972,448.135l2.261,2.324v-2.1l.376.015v2.953l-2.261-2.319v2.122l-.376-.013Z" transform="translate(-288.617 -447.946)"/><path class="d" d="M343.191,451.115l.623.025c.923.037,1.69.524,1.69,1.461,0,.96-.751,1.4-1.7,1.362l-.611-.022Zm.376,2.518.132,0c.767.028,1.43-.217,1.43-1.036s-.663-1.114-1.43-1.144l-.132-.005Z" transform="translate(-326.342 -450.609)"/><path class="d" d="M369.386,452.173l1.618.065v.32l-1.243-.049v.787l1.207.046v.32l-1.207-.046v1.063l1.243.045v.32l-1.618-.057Z" transform="translate(-349.748 -451.554)"/><path class="d" d="M401.656,453.845a.548.548,0,0,0-.483-.282c-.24-.01-.5.132-.5.376,0,.219.232.343.419.416l.216.086c.428.172.747.4.747.868a.862.862,0,0,1-.963.835.957.957,0,0,1-.931-.816l.38-.06a.57.57,0,0,0,.583.551.521.521,0,0,0,.555-.524c0-.3-.26-.439-.519-.549l-.208-.089c-.344-.15-.655-.344-.655-.733a.765.765,0,0,1,.887-.687.915.915,0,0,1,.775.453Z" transform="translate(-377.244 -452.504)"/><path class="d" d="M422.75,454.325l1.618.065v.317l-1.243-.049v.779l1.207.046v.317l-1.207-.046v1.052l1.243.045v.317l-1.618-.057Z" transform="translate(-397.431 -453.477)"/><path class="d" d="M441.773,455.255h-.008l-.351,1.818-.388-.014.615-2.868,1.035,2.222,1.035-2.138.615,2.9-.388-.014-.352-1.837h-.008l-.9,1.851Z" transform="translate(-413.761 -453.357)"/><path class="d" d="M473.86,457.959l-.344.678-.4-.014,1.438-2.817,1.438,2.919-.4-.014-.344-.7Zm.691-1.4-.535,1.093,1.071.04Z" transform="translate(-442.432 -454.8)"/><path class="d" d="M503.1,456.338l2.261,2.24V456.56l.376.015v2.842l-2.261-2.235v2.043l-.376-.013Z" transform="translate(-469.225 -455.276)"/><path class="d" d="M531.578,460.276l-.344.671-.4-.014,1.438-2.785,1.438,2.887-.4-.014-.344-.693Zm.691-1.386-.535,1.081,1.071.04Z" transform="translate(-494.006 -456.892)"/><path class="d" d="M185.664,482.347h-.008l-.352,1.91-.388-.011.615-3.013,1.035,2.321L187.6,481.3l.615,3.037-.388-.011-.352-1.924h-.008l-.9,1.95Z" transform="translate(-184.917 -477.519)"/><path class="d" d="M217.75,478.2l-.344.714-.4-.011,1.438-2.968,1.438,3.05-.4-.012-.344-.732Zm.691-1.476-.535,1.151,1.071.033Zm.575-1.4-.655.548-.176-.109.5-.618Z" transform="translate(-213.587 -472.079)"/><path class="d" d="M247.323,484.608a.541.541,0,0,0-.483-.286.451.451,0,0,0-.5.391c0,.225.232.351.419.425l.216.087c.428.173.747.408.747.887a.879.879,0,0,1-.963.867.957.957,0,0,1-.931-.832l.38-.065a.572.572,0,0,0,.583.562.533.533,0,0,0,.555-.543c0-.308-.26-.45-.519-.56l-.208-.09c-.344-.152-.655-.349-.655-.749a.778.778,0,0,1,.887-.714.9.9,0,0,1,.775.46Z" transform="translate(-239.341 -479.98)"/><path class="d" d="M279.9,485.386l.367.012c.567.019,1.1.177,1.1.82a.585.585,0,0,1-.324.531v.008a.773.773,0,0,1,.6.741c0,.571-.515.783-1.047.768l-.7-.02Zm.376,1.279.1,0c.355.011.647-.048.647-.457s-.288-.479-.639-.491l-.1,0Zm0,1.274.288.008c.348.01.711-.078.711-.483s-.432-.5-.767-.508l-.232-.007Z" transform="translate(-269.788 -481.231)"/><path class="d" d="M298.96,487.551l-.344.7-.4-.012,1.438-2.923,1.438,3.005-.4-.012-.344-.722Zm.691-1.454-.535,1.134,1.071.033Z" transform="translate(-286.152 -481.172)"/><path class="d" d="M330.41,489.907l-.455-.013-.887-1.223-.156,0v1.2l-.376-.011v-2.835l.455.015a1.714,1.714,0,0,1,.8.158.8.8,0,0,1,.4.688.758.758,0,0,1-.723.769Zm-1.5-1.534.12,0c.384.012.8-.043.8-.493s-.447-.521-.819-.533l-.1,0Z" transform="translate(-313.247 -482.69)"/><path class="d" d="M347.6,489.174l-.344.7-.4-.012,1.438-2.9,1.438,2.978-.4-.011-.344-.715Zm.691-1.441-.535,1.124,1.071.033Z" transform="translate(-329.611 -482.641)"/><path class="d" d="M372.635,491.306l-.375-.011v-2.488l-.715-.024v-.321l1.806.06v.32l-.715-.024Z" transform="translate(-351.676 -483.981)"/><path class="d" d="M393.388,490.528a1.453,1.453,0,0,1-1.578,1.407,1.559,1.559,0,0,1-1.578-1.506,1.47,1.47,0,0,1,1.578-1.407A1.591,1.591,0,0,1,393.388,490.528Zm-.376-.012a1.193,1.193,0,0,0-1.2-1.168,1.1,1.1,0,0,0-1.2,1.093,1.211,1.211,0,0,0,1.2,1.168A1.127,1.127,0,0,0,393.013,490.516Z" transform="translate(-368.375 -484.479)"/><path class="d" d="M435.717,490.616l.623.021c.923.031,1.69.5,1.69,1.425,0,.943-.751,1.377-1.7,1.349l-.611-.018Zm.376,2.472.132,0c.767.022,1.43-.223,1.43-1.027s-.663-1.09-1.43-1.116l-.132,0Z" transform="translate(-409.017 -485.904)"/><path class="d" d="M461.911,491.5l1.618.054v.314l-1.242-.041v.773l1.206.038v.315l-1.206-.038v1.044l1.242.036v.314l-1.618-.046Z" transform="translate(-432.423 -486.691)"/><path class="d" d="M482.777,494.634l.915.027v.313l-1.29-.037v-2.753l.376.013Z" transform="translate(-450.731 -487.305)"/><path class="d" d="M507.316,494.5l-.344.676-.4-.012,1.438-2.809,1.438,2.891-.4-.012-.344-.694Zm.691-1.4-.535,1.09,1.071.033Z" transform="translate(-472.327 -487.461)"/><path class="d" d="M536.554,488.065l2.261,2.211v-2l.375.013v2.823L536.93,488.9v2.03l-.376-.011Zm.555-.285.012-.018a.509.509,0,0,1,.431-.259.823.823,0,0,1,.356.106.748.748,0,0,0,.288.107.316.316,0,0,0,.256-.164l.188.147a.507.507,0,0,1-.471.279.89.89,0,0,1-.332-.105.877.877,0,0,0-.312-.1.28.28,0,0,0-.228.158Z" transform="translate(-499.119 -483.123)"/><path class="d" d="M568.457,496.375a1.434,1.434,0,0,1-1.578,1.359,1.538,1.538,0,0,1-1.578-1.458,1.45,1.45,0,0,1,1.578-1.359A1.57,1.57,0,0,1,568.457,496.375Zm-.375-.012a1.176,1.176,0,0,0-1.2-1.13,1.088,1.088,0,0,0-1.2,1.056,1.194,1.194,0,0,0,1.2,1.13A1.111,1.111,0,0,0,568.082,496.363Z" transform="translate(-524.806 -489.747)"/></g><g transform="translate(12.021 57.366)"><path class="c" d="M137.243,569.912l-.565,0,.274-.462.787,0-.02,3.267-.493,0Z" transform="translate(-136.678 -569.352)"/><path class="c" d="M156.117,568.551l.36.273-.787,1.057.108-.012q.045,0,.07,0a.918.918,0,0,1,.686.309,1.009,1.009,0,0,1,.283.725,1.094,1.094,0,0,1-1.1,1.083,1.1,1.1,0,0,1-.777-.32,1,1,0,0,1-.323-.749,1.407,1.407,0,0,1,.324-.819Zm.24,2.378a.618.618,0,1,0-1.236-.014.618.618,0,0,0,1.236.014Z" transform="translate(-152.729 -568.551)"/><path class="c" d="M190.067,588.654l.944.006,0,.415-.944-.006Z" transform="translate(-184.381 -586.514)"/><path class="c" d="M217.888,570.4l-.565,0,.274-.462.787,0-.02,3.267-.493,0Z" transform="translate(-208.738 -569.788)"/><path class="c" d="M236.353,573.007l-.36-.271.787-1.059-.108.012c-.03,0-.054,0-.072,0a.919.919,0,0,1-.684-.307,1.009,1.009,0,0,1-.283-.725,1.094,1.094,0,0,1,1.1-1.085,1.084,1.084,0,0,1,.774.322,1,1,0,0,1,.326.747,1.429,1.429,0,0,1-.327.821Zm-.239-2.38a.6.6,0,0,0,.177.445.618.618,0,1,0,.442-1.051.618.618,0,0,0-.619.606Z" transform="translate(-225.098 -569.467)"/><path class="c" d="M274.617,573.535l.02-3.266.685,0a2.5,2.5,0,0,1,.778.1,1.458,1.458,0,0,1,.554.327,1.689,1.689,0,0,1-.036,2.431,1.536,1.536,0,0,1-.556.32,2.527,2.527,0,0,1-.769.086Zm.5-.46h.222a1.864,1.864,0,0,0,.553-.066,1.121,1.121,0,0,0,.768-1.1,1.135,1.135,0,0,0-.354-.874,1.363,1.363,0,0,0-.952-.3h-.222Z" transform="translate(-259.932 -570.085)"/><path class="c" d="M305.987,570.92l-1.31-.008,0,.785,1.272.008,0,.463-1.272-.008-.007,1.092,1.31.008,0,.463-1.8-.011.02-3.267,1.8.011Z" transform="translate(-286.337 -570.244)"/><path class="c" d="M339.741,572.063l.021-3.489,2.367,2.507.014-2.27.493,0-.021,3.466-2.367-2.5-.014,2.287Z" transform="translate(-318.123 -568.572)"/><path class="c" d="M372.943,572.052a1.6,1.6,0,0,1,.513-1.182,1.663,1.663,0,0,1,1.213-.488,1.709,1.709,0,0,1,1.689,1.709,1.607,1.607,0,0,1-.511,1.193,1.726,1.726,0,0,1-2.357.041A1.6,1.6,0,0,1,372.943,572.052Zm.5.008a1.211,1.211,0,0,0,2.062.9,1.266,1.266,0,0,0,.015-1.75,1.219,1.219,0,0,0-1.72-.01A1.177,1.177,0,0,0,373.44,572.061Z" transform="translate(-347.79 -570.188)"/><path class="c" d="M406.6,571.064l.89,2.269.93-2.258.54,0-1.487,3.5-1.411-3.521Z" transform="translate(-377.386 -570.794)"/><path class="c" d="M437.432,571.252l-.02,3.267-.493,0,.02-3.267Z" transform="translate(-404.957 -570.962)"/><path class="c" d="M450.743,571.8l-1.31-.008,0,.785,1.271.008,0,.463-1.271-.008-.007,1.092,1.31.008,0,.463-1.8-.011.02-3.267,1.8.011Z" transform="translate(-415.683 -571.026)"/><path class="c" d="M470.863,572.7l.709-3.508,1.106,2.546,1.177-2.532.6,3.516-.506,0-.3-1.974-.98,2.116-.926-2.13-.363,1.972Z" transform="translate(-435.286 -569.12)"/><path class="c" d="M511.066,574.964l.02-3.267.491,0a2.157,2.157,0,0,1,.522.054.787.787,0,0,1,.331.174.894.894,0,0,1,.216.312.94.94,0,0,1,.08.381.772.772,0,0,1-.272.593.79.79,0,0,1,.409.313.879.879,0,0,1,.149.513.87.87,0,0,1-.275.646.888.888,0,0,1-.367.224,2.134,2.134,0,0,1-.557.058Zm.5-.46.3,0a.756.756,0,0,0,.492-.128.453.453,0,0,0,.167-.359.46.46,0,0,0-.156-.356.822.822,0,0,0-.551-.145l-.25,0Zm.009-1.4h.154a.57.57,0,0,0,.4-.119.473.473,0,0,0,.13-.358.451.451,0,0,0-.129-.351.548.548,0,0,0-.38-.122h-.173Z" transform="translate(-471.209 -571.362)"/><path class="c" d="M536.248,573.725l1,1.4-.6,0-.925-1.343h-.089l-.008,1.337-.493,0,.02-3.266.577,0a1.444,1.444,0,0,1,.934.249.894.894,0,0,1,.313.717.927.927,0,0,1-.2.6A.886.886,0,0,1,536.248,573.725Zm-.611-.378h.157q.7,0,.7-.531,0-.5-.678-.506h-.176Z" transform="translate(-492.714 -571.493)"/><path class="c" d="M561.456,572.465l-1.31-.008,0,.785,1.271.008,0,.463-1.272-.008-.007,1.092,1.31.008,0,.463-1.8-.011.02-3.267,1.8.011Z" transform="translate(-514.61 -571.625)"/></g><path d="M176.271,271.512l10.292,1.051v3.246l-6.376-.658.069,2.98,5.96.485.077,3.017-6.03-.381.045,5.864-3.886-.045Z" transform="translate(-160.035 -245.768)"/><path d="M283.152,282.146l3.9.387.335,14.559-3.947-.164Z" transform="translate(-255.538 -255.27)"/><path d="M337.918,287.477l4.36.413,6.424,9.493-.31-8.9,3.534.387.542,13.647-4.515-.129-6.285-9.369.254,9.071-3.644-.114Z" transform="translate(-304.473 -260.034)"/><path class="b" d="M494.5,330.126a1.562,1.562,0,0,1-1.911,1.2,1.792,1.792,0,0,1-1.582-1.859c.133-.814.942-1.227,1.928-1.067A1.66,1.66,0,0,1,494.5,330.126Z" transform="translate(-441.253 -296.568)"/><path class="b" d="M497.31,387.134a1.563,1.563,0,0,1-1.912,1.2,1.793,1.793,0,0,1-1.582-1.862c.133-.816.943-1.23,1.928-1.069A1.661,1.661,0,0,1,497.31,387.134Z" transform="translate(-443.761 -347.504)"/><path d="M182.934,157.351A3.493,3.493,0,0,0,181.3,156.2c-.175-.051-.245-.058-.319-.141a2.763,2.763,0,0,0,1.435-.773,2.42,2.42,0,0,0,.461-1.636,3.126,3.126,0,0,0-2.8-3.143c-1.293-.235-5.9-.879-5.9-.879l.038,12.118s3.8.475,5.731.475c2.625,0,3.439-1.676,3.439-2.882A3.793,3.793,0,0,0,182.934,157.351Zm-5.774-4.941,1.232.155c.91.159,1.177.722,1.171,1.085a1.424,1.424,0,0,1-.169.874.864.864,0,0,1-.852.384c-.4-.023-1.353-.136-1.353-.136Zm2.7,7.072a1.4,1.4,0,0,1-1.108.3l-1.5-.19,0-2.521,1.5.14a1.583,1.583,0,0,1,1.053.5A1.457,1.457,0,0,1,179.858,159.482Z" transform="translate(-158.169 -136.858)"/><path d="M275.318,164.212l2.981.412.225,5.914a13.1,13.1,0,0,1-.062,2.089,3.524,3.524,0,0,1-.855,1.821c-.456.477-1.126,1.178-3.794,1.178a7.216,7.216,0,0,1-4.494-1.5,5.222,5.222,0,0,1-1.4-3.707l-.068-7.3,2.886.433.211,7.262a2.65,2.65,0,0,0,4.129,1.818,1.883,1.883,0,0,0,.433-1.456Z" transform="translate(-241.867 -148.918)"/><path d="M380.352,179.351l8.161,1.2.075,2.3-5.165-.685.012,1.962,4.923.619.054,2.237-4.847-.577.017,2.075,5.331.541.048,2.36-8.238-.832Z" transform="translate(-342.39 -163.419)"/><path d="M468.935,192.548l3.374.477,5.053,7.382-.281-6.673,2.746.418.513,10.235-3.476-.336-5.016-7.287.237,6.814-2.72-.276Z" transform="translate(-421.542 -175.211)"/><path class="b" d="M537.956,317.3a1.421,1.421,0,0,1,1.381.578,9.7,9.7,0,0,1,2.427,6.174c0,2.166-1.592,4.792-2.4,5.072,0,0-1.223.179-.942-.243a9.576,9.576,0,0,0,.737-1.513c.23-.691.672-1.188.672-4.3a11.68,11.68,0,0,0-1.787-5.168S537.645,317.418,537.956,317.3Z" transform="translate(-483.11 -286.667)"/></g><g transform="translate(1012.785 93.281)"><path class="c" d="M739.634,230.288,710.966,335.233l-53.752-13.822L648,316.8s28.237-106.821,29.476-106.139S738.1,226.7,738.1,226.7Z" transform="translate(-591.364 -208.623)"/><path class="e" d="M717.463,225.539l-21.732,79.553-40.747-10.478L648,291.122s21.4-80.975,22.344-80.458S716.3,222.823,716.3,222.823Z" transform="translate(-578.454 -198.114)"/><g transform="translate(0 0)"><path d="M680.893,278.893c.142-.7,8.472-34.012,8.562-34.587a2.327,2.327,0,0,0-1.658-2.652,2.205,2.205,0,0,0-2.78,1.411c-.522,1.572-9.043,35.954-9.578,37.521a3.04,3.04,0,0,1-1.154,1.522,34.651,34.651,0,0,0-15.1,18.814,94.243,94.243,0,0,1-14.63,27.176c-1.969,2.542-1.9,4.008.659,6.045a53.429,53.429,0,0,0,7.37,4.984c6.487,3.583,13.61,5.3,20.855,6.471a154.143,154.143,0,0,0,30.4,1.908,5.04,5.04,0,0,0,3.026-1.085c4.913-3.729,9.873-7.4,14.782-11.131a2.083,2.083,0,0,1,2.2-.4c.8.291,1.632.47,2.454.686,4.659,1.226,8.286-.871,9.539-5.549q5.118-19.1,10.214-38.206c5.445-20.363,10.84-40.741,16.38-61.078A7.578,7.578,0,0,0,756.787,221c-17.8-4.693-35.569-9.48-53.352-14.229-4.859-1.3-8.393.738-9.7,5.612-3.985,14.819-.107.535-4.081,15.357a5.2,5.2,0,0,0-.2,1,2.326,2.326,0,0,0,1.93,2.707,2.257,2.257,0,0,0,2.662-1.824c.814-2.863,1-3.743,4.258-15.858.676-2.514,1.555-3.007,4.086-2.33q26.488,7.079,52.977,14.154c2.585.691,3.11,1.581,2.417,4.166q-13.222,49.331-26.448,98.662c-.725,2.705-1.612,3.2-4.35,2.459q-11.781-3.208-23.561-6.42c-.429-.117-.852-.256-1.5-.452,3.842.055,6.928-2.271,7.53-5.486a7.152,7.152,0,0,0-4.605-8.272,6.991,6.991,0,0,0-8.466,3.152c-2,3.349-1.133,6.608,2.847,10.08l-16.738-4.579c.262-.445.448-.8.668-1.127A29.72,29.72,0,0,0,688,304.205c.223-2.066,3.136-4.634,5.2-4.454a3.09,3.09,0,0,1,1.615.845c3.086,2.788,6.366,5.269,10.38,6.566a12.108,12.108,0,0,0,9.663-.552,5.218,5.218,0,0,0,2.273-7.742c-1.636-2.837-3.36-5.623-5.045-8.431-1.9-3.174-3.82-6.34-5.705-9.525a9.252,9.252,0,0,0-8.59-4.744,53.1,53.1,0,0,0-15.578,2.375C681.816,278.663,681.417,278.754,680.893,278.893Zm-32.25,51.732c.206-.3.365-.553.543-.789a97.166,97.166,0,0,0,14.838-28.352,22.564,22.564,0,0,1,1.284-3.19c3.844-7.532,10.169-12.168,17.878-15.128,4.427-1.7,9.112-2.06,13.782-2.307,2.129-.113,4.152.445,5.385,2.506q5.273,8.814,10.577,17.61c.54.894.252,1.248-.633,1.57a8.757,8.757,0,0,1-7.959-.861c-2.393-1.515-4.518-3.446-6.85-5.067a9.119,9.119,0,0,0-3.382-1.555c-4.28-.792-10.66,3.745-11,9.014-.443,6.98-3.487,12.636-9.759,16.215-.881.5-1.863.826-2.769,1.289a2.349,2.349,0,0,0-1.357,2.734,2.209,2.209,0,0,0,2.5,1.712,7.061,7.061,0,0,0,2.42-.7c1.18-.578,2.25-1.378,3.43-1.956a2.94,2.94,0,0,1,1.857-.3q17.993,4.744,35.961,9.588c.387.1.762.255,1.322.445-4.309,3.229-8.45,6.34-12.609,9.427a1.749,1.749,0,0,1-.96.233c-13.363.246-26.621-.534-39.54-4.305C658.138,336.863,652.928,334.7,648.642,330.625Zm51.544-13.714a2.338,2.338,0,0,1,4.673-.084,2.339,2.339,0,1,1-4.673.084Z" transform="translate(-612.129 -206.387)"/><path class="c" d="M733.33,401.953c4.286,4.079,9.5,6.238,14.961,7.833,12.919,3.771,26.177,4.551,39.54,4.305a1.75,1.75,0,0,0,.96-.233c4.159-3.087,8.3-6.2,12.609-9.427-.56-.191-.935-.342-1.322-.445q-17.975-4.814-35.961-9.588a2.938,2.938,0,0,0-1.857.3c-1.179.578-2.25,1.378-3.43,1.956a7.061,7.061,0,0,1-2.42.7,2.209,2.209,0,0,1-2.5-1.712,2.35,2.35,0,0,1,1.357-2.735c.906-.462,1.888-.786,2.769-1.289,6.271-3.579,9.315-9.236,9.759-16.215.335-5.269,6.715-9.806,11-9.014a9.116,9.116,0,0,1,3.381,1.555c2.332,1.62,4.457,3.551,6.85,5.067a8.757,8.757,0,0,0,7.959.861c.885-.321,1.174-.675.633-1.569q-5.314-8.79-10.577-17.61c-1.233-2.061-3.256-2.619-5.385-2.506-4.67.247-9.355.607-13.782,2.307-7.71,2.96-14.034,7.6-17.878,15.128a22.573,22.573,0,0,0-1.284,3.19,97.179,97.179,0,0,1-14.838,28.352C733.695,401.4,733.536,401.652,733.33,401.953Z" transform="translate(-696.817 -277.714)"/><path class="c" d="M756.537,420.579a2.339,2.339,0,1,0,4.673-.084,2.338,2.338,0,0,0-4.673.084Z" transform="translate(-668.481 -310.055)"/><g transform="translate(21.825 7.208) rotate(19)"><path d="M0,54.388c.682-6.726,1.316-12.943,1.941-19.159Q2.93,25.4,3.908,15.564c.443-4.4.872-8.8,1.367-13.189A2.4,2.4,0,0,1,9.086.435q6.871,3.906,13.692,7.9c1.723,1.006,2.016,2.187,1.012,3.972-1.437,2.555-2.961,5.061-4.376,7.628a2.344,2.344,0,0,0,1.837,3.592A2.291,2.291,0,0,0,23.6,22.12q2.042-3.53,4.089-7.057c1.339-2.3,2.211-2.559,4.527-1.236q6.531,3.731,13.03,7.517c2.2,1.283,2.287,3.144.235,4.624Q24.9,40.809,4.3,55.644c-.951.685-2,1.2-3.042.435A6.141,6.141,0,0,1,0,54.388Zm5.312-5.347L40.207,23.9c-1.72-.993-3.176-1.842-4.639-2.678S32.634,19.564,31.1,18.7c-1.272,2.167-2.435,4.239-3.685,6.258a7.035,7.035,0,0,1-9.937,2.1c-3.277-2.208-4.066-6.2-1.945-9.928,1.043-1.837,2.112-3.659,3.223-5.58l-9.114-5.3C8.195,20.553,6.772,34.611,5.312,49.041Z" transform="translate(0 10.576)"/><path d="M3.181,5.093A9.075,9.075,0,0,1,1.859,5,2.161,2.161,0,0,1,.005,2.878,2.2,2.2,0,0,1,1.729.51,35.286,35.286,0,0,1,6.656,0C8.394-.037,9.382.925,9.386,2.36s-.979,2.3-2.709,2.4c-.593.033-1.186.076-1.776.133S3.721,5.028,3.181,5.093Z" transform="translate(60.443 0)"/><path d="M6.744,0C7.936.292,8.762.736,9.087,1.815a2.024,2.024,0,0,1-1.058,2.7A44.782,44.782,0,0,1,2.5,6.364,1.875,1.875,0,0,1,.2,4.994,1.975,1.975,0,0,1,1,2.314C2.86,1.427,4.824.759,6.744,0Z" transform="translate(46.648 2.097)"/><path d="M3.642,0C4.6.2,6.188.453,7.742.849A2.231,2.231,0,0,1,9.305,3.426,2.275,2.275,0,0,1,6.868,5.377,43.01,43.01,0,0,1,2.356,4.7C.583,4.333-.185,3.333.038,1.926.244.615,1.272-.056,3.642,0Z" transform="translate(74.614 0.448)"/><path d="M1.826,7.414C1.359,7.055.484,6.707.222,6.1-.065,5.427-.11,4.124.305,3.778a31.4,31.4,0,0,1,5.31-3.6c.959-.51,2,.155,2.536,1.158a2.108,2.108,0,0,1-.467,2.788C6.246,5.227,4.662,6.142,3.117,7.1A5.3,5.3,0,0,1,1.826,7.414Z" transform="translate(34.389 8.002)"/><path d="M2.48,0C4.437.874,6.468,1.617,8.318,2.676a1.956,1.956,0,0,1,.407,2.76A2.072,2.072,0,0,1,6.168,6.6,44.689,44.689,0,0,1,1.915,4.921C.842,4.434-.1,3.742.009,2.346A2.173,2.173,0,0,1,2.347.309Z" transform="translate(88.44 3.436)"/><path d="M2.393,5.145A2.3,2.3,0,0,1,0,2.745,2.966,2.966,0,0,1,2.811,0,2.394,2.394,0,0,1,5.162,2.349,3.034,3.034,0,0,1,2.393,5.145Z" transform="translate(26.503 16.799)"/><path class="f" d="M0,42.8,4.332,0l9.114,5.3c-1.112,1.921-2.18,3.743-3.223,5.58-2.12,3.733-1.332,7.72,1.945,9.928a7.034,7.034,0,0,0,9.937-2.1c1.25-2.019,2.413-4.092,3.685-6.258,1.532.867,3,1.692,4.467,2.529s2.919,1.684,4.638,2.678Z" transform="translate(5.312 16.815)"/></g></g></g></g></svg>