<svg xmlns="http://www.w3.org/2000/svg" width="101.434" height="15.033" viewBox="0 0 101.434 15.033"><defs><style>.a{fill:#90929d;}</style></defs><g transform="translate(0 0)"><path class="a" d="M139.105,74.388h4.963l.289.029.274.029.26.014.245.043.216.029.216.058.2.058.173.058.173.072.144.087.13.072.115.087.1.1.1.1.072.115.072.159.043.144.043.159.029.159v.39l-.029.216-.043.231-.043.231-.058.245-.087.26-.1.26-.115.3-.115.289-.144.317-.447.938-.144.3-.144.289-.159.274-.173.274-.144.245-.188.231-.173.245-.173.2-.188.216-.188.188-.2.188-.188.173-.216.144-.2.159-.216.13-.216.115-.173.087-.188.087-.2.087-.2.072-.216.072-.231.072-.462.115.26.043.216.043.231.058.188.058.159.058.159.072.115.072.1.072.072.087.072.1.043.115.043.115.029.144v.317l-.029.188-.029.2-.043.188-.058.231-.072.231-.087.245-.1.274-.13.26-.13.289-.967,2.049h-2.135V81.933l.087-.014.26-.029.231-.043.2-.058.188-.072.159-.072.188-.115.173-.13.188-.173.159-.188.173-.2.144-.245.159-.274.144-.289.447-.952.087-.2.072-.173.029-.173.014-.144-.014-.072v-.058l-.029-.058-.014-.058-.029-.043-.043-.043-.043-.043-.043-.029-.072-.043-.1-.043-.13-.014-.144-.029-.159-.014-.188-.014-.462-.014h-1.63Zm-10.517,14.73,6.939-14.73h3.578v3.419h-1.154L136,81.962h2.323l.3-.014.3-.014h.173v7.185h-1.774l.967-2.049.1-.216.072-.216.058-.188.029-.173.029-.159-.014-.13-.014-.115-.043-.1-.072-.087-.087-.087-.115-.058-.13-.058-.159-.029-.173-.043-.216-.014h-3.174l-1.76,3.722Z" transform="translate(-128.588 -74.229)"/><path class="a" d="M198.86,89.118l6.925-14.73h10.733l-1.529,3.246H208.3l-1.27,2.741h6.261L212,83.116h-6.276l-1.3,2.756h6.809l-1.529,3.246Z" transform="translate(-184.779 -74.229)"/><path class="a" d="M268.992,74.388h5.223l.4.014.361.043.346.043.317.043.3.087.274.072.26.1.216.1.216.13.173.13.173.13.13.173.115.173.087.188.058.2.043.173.029.2.014.2-.014.245-.029.231-.043.289-.043.274-.086.3-.087.317-.1.332-.13.361-.13.361-.144.39-.188.4-.173.418-.2.447-.736,1.529-.2.447-.216.447-.216.4-.231.4-.2.375-.231.346-.2.361-.216.317-.231.3-.216.289-.216.289-.231.245-.2.231-.216.216-.231.2-.2.188-.26.188-.274.173-.274.173-.3.159-.288.13-.317.13-.332.115-.346.1-.346.1-.361.072-.072.014V85.6h.029l.144-.058.144-.043.144-.043.13-.072.13-.072.115-.087.115-.087.13-.1.115-.1.1-.1.1-.13.1-.144.115-.173.144-.216.13-.245.332-.635.375-.793.707-1.472.346-.765.274-.62.173-.447.058-.159.029-.13.014-.13.014-.115v-.13l-.014-.1-.014-.1-.043-.087-.043-.087-.058-.058-.058-.072-.086-.058-.087-.043-.1-.043-.1-.029-.13-.014-.13-.029h-3.347Zm-9.868,14.73,6.925-14.73h2.943v3.419h-.5L264.779,85.7H268.4l.159-.014.159-.029.159-.029.115-.029v3.318l-.3.058-.39.043-.4.043-.4.043-.447.014h-7.92Z" transform="translate(-232.968 -74.229)"/><path class="a" d="M341.468,74.388H345.7l.346.029.332.029.3.029.289.029.288.043.245.058.245.058.2.058.188.087.188.072.144.087.144.1.115.1.1.1.1.144.057.144.058.173.043.188.029.2v.2l-.014.231-.029.245-.043.274-.072.274-.072.289-.1.317-.13.317-.13.346-.159.346-.159.39-.548,1.154-.188.39-.187.361-.2.361-.2.332-.2.332-.187.289-.217.3-.216.26-.216.26-.231.231-.216.216-.216.2-.245.188-.231.159-.245.159-.231.144-.187.1-.231.087-.231.087-.245.087-.26.072-.274.058-.289.072-.3.058-.317.043-.317.043h-.1V82.049h.043l.231-.014.188-.043.173-.029.159-.029.13-.043.173-.087.173-.115.173-.13.159-.173.144-.173.144-.216.144-.231.13-.26.505-1.111.115-.231.087-.231.058-.2.043-.159v-.3l-.014-.1-.029-.058-.014-.029-.058-.072-.087-.058-.115-.043-.144-.029-.173-.029-.2-.014-.216-.029h-1.919Zm-10.344,14.73,6.939-14.73h3.4v3.419h-.981l-2.005,4.27h2.193l.577-.014.216-.014V85.4l-.245.029-.375.029-.361.029-.389.014h-3.232l-1.688,3.621Z" transform="translate(-290.542 -74.229)"/><path class="a" d="M398.306,75.932l1.284-1.544h6.146l-2.871,14.73h-4.241l.476-2.467h-.793V83.924h1.356l1.154-6.045-2.51,3.015Zm-10.95,13.186,10.95-13.186v4.963l-2.51,3.03h2.51v2.727h-4.8l-2.019,2.467Z" transform="translate(-335.506 -74.229)"/><path class="a" d="M485.272,82.887l-.187.418-.187.39-.2.389-.187.346-.216.346-.2.346-.2.3-.217.3-.216.274-.216.26-.231.26-.216.216-.231.216-.231.188-.245.188-.245.159-.216.144-.26.13-.26.115-.26.115-.289.1-.288.1-.317.087-.318.058-.332.072-.361.058-.346.043-.39.058-.375.029-.4.029h-1.342l-.461-.014-.462-.029-.418-.029-.39-.043-.375-.072-.346-.058-.3-.087-.288-.072-.274-.1-.245-.115-.216-.115-.173-.13-.144-.13-.144-.159-.058-.072-.043-.087-.058-.087-.029-.086-.058-.2-.043-.231-.029-.231V86.2l.029-.274.043-.317.058-.332.087-.346.1-.375.13-.389.144-.418.159-.433.187-.462.216-.476.231-.5.707-1.5.245-.5.231-.476.26-.462.231-.433.245-.418.245-.4.245-.361.245-.346.245-.332.245-.317.26-.274.231-.274.26-.231.245-.231.26-.2.26-.187.245-.159.274-.159.288-.13.3-.13.332-.115.332-.1.361-.1.36-.087.4-.087.4-.058.419-.058.447-.058.462-.029.461-.029.491-.029h.923l.375.014.361.029.346.029.332.043.3.043.289.058.26.043.245.072L486.8,74l.216.086.173.087.173.115.159.1.115.13.115.115.087.159.087.173.057.173.043.2.029.231V75.8l-.015.245-.029.26-.057.274-.058.3-.086.317-.1.332-.13.346-.144.361-.159.375-.173.39-.029.043h-4.039l.13-.3.115-.274.072-.26.058-.231.014-.1v-.188l-.014-.087v-.058l-.029-.072-.029-.058-.043-.043-.043-.058-.043-.029-.13-.072-.144-.058-.188-.043-.231-.043-.26-.014-.289-.029h-.548l-.2.014-.188.014-.2.029-.188.029-.173.043-.159.029-.159.058-.159.058-.159.058-.144.058-.13.087-.13.087-.115.072-.115.1-.1.1-.144.159-.144.187-.159.245-.173.289-.187.332-.2.389-.217.418-.231.476-.707,1.515-.216.476-.187.418-.159.389-.13.332-.087.289-.072.245-.043.2v.144l.014.1.014.1.044.072.057.087.058.086.072.058.087.058.1.058.13.058.13.043.13.029.159.029.173.014.188.029.187.014h.2l.361-.014.332-.014.3-.029.274-.058.26-.058.216-.072.2-.087.173-.1.173-.13.173-.159.159-.188.159-.216.159-.245.173-.289.159-.317.159-.346Z" transform="translate(-402.809 -73.596)"/><path class="a" d="M536.072,89.118H532l6.954-14.73H543Z" transform="translate(-451.171 -74.229)"/><path class="a" d="M568.984,81.6l8.324-7h4.545l-9.262,8.065,2.164,6.68h-4.011l-1.89-6.319-.2-.692Z" transform="translate(-480.476 -74.402)"/><path class="a" d="M623.23,135.084l.13.014h.13l.115.043.115.043.115.043.1.072.1.087.087.072.087.1.072.1.072.1.044.115.058.115.029.13.014.13.014.13-.014.144-.014.115-.029.144-.058.115-.044.115-.072.1-.072.1-.087.1-.087.087-.1.058-.1.072-.115.058-.115.043-.115.029-.13.014h-.144v-.188h.014l.1-.014.115-.014.1-.014.087-.043.086-.043.087-.058.072-.058.086-.087.072-.072.058-.072.043-.1.043-.087.029-.1.043-.115v-.447l-.043-.1-.029-.1-.043-.1-.043-.087-.058-.087-.072-.087-.086-.058-.072-.072-.087-.058-.086-.043-.087-.043-.1-.029-.115-.014h-.115v-.2h.014Zm-.014,1.443.044.014h.043l.058.043.029.029.029.043.029.058.014.058.043.245.015.072.029.058h.245l-.015-.043-.029-.072-.029-.1-.029-.144-.015-.072-.014-.072-.029-.058-.015-.043-.029-.058-.043-.014-.043-.029h-.043v-.029l.058-.014.043-.029.058-.029.043-.043.029-.043.029-.058.015-.058v-.072l-.015-.1-.014-.072-.043-.072-.058-.043-.072-.043-.1-.043-.13-.029h-.087v.173h.014l.072.029.072.014.043.029.043.043.015.043.029.058v.043l-.014.058-.014.058-.029.043-.043.029-.057.029-.058.014-.072.014h0Zm0,1.154h-.13l-.115-.014-.13-.029-.115-.043-.116-.058-.115-.072-.1-.058-.086-.087-.087-.1-.072-.1-.058-.1-.058-.115-.043-.115-.043-.144-.014-.115v-.274l.014-.13.043-.13.043-.115.058-.115.058-.1.072-.1.087-.1.086-.072.1-.087.115-.072.116-.043.115-.043.13-.043h.115l.13-.014v.2h-.1l-.1.014-.1.029-.087.043-.1.043-.087.058-.072.072-.087.058-.058.087-.072.087-.043.087-.044.1-.029.1-.029.1-.014.1-.015.115.015.115.014.115.029.1.029.1.044.1.043.087.072.087.058.072.087.072.072.072.087.058.1.043.1.043.086.014.1.014.1.014v.188Zm0-2.02h-.072l-.216.014-.187.014v1.457h.231v-.635h.173l.058.014h.014v-.188h-.245v-.49l.087-.014h.159Z" transform="translate(-523.08 -122.763)"/></g></svg>