<svg xmlns="http://www.w3.org/2000/svg" width="62.676" height="17.363" viewBox="0 0 62.676 17.363"><defs><style>.a{fill:#90929d;}</style></defs><g transform="translate(0 0)"><g transform="translate(0 0)"><g transform="translate(58.647 13.117)"><path class="a" d="M438.948,310.009a1.629,1.629,0,1,0-1.629,1.671,1.6,1.6,0,0,0,1.629-1.671Zm-2.056.085v1.093h-.354v-2.411h.878c.514,0,.75.226.75.665a.5.5,0,0,1-.418.514v.011c.2.032.279.215.321.547a2.252,2.252,0,0,0,.151.675H437.8a7.723,7.723,0,0,1-.162-.814.354.354,0,0,0-.405-.279Zm.438-.31c.342,0,.439-.183.439-.343,0-.192-.1-.342-.439-.342h-.438v.685Zm-2.025.225A2.014,2.014,0,1,1,437.319,312a1.973,1.973,0,0,1-2.014-1.993Z" transform="translate(-435.305 -308.016)"/></g><g transform="translate(32.903)"><path class="a" d="M423.882,309.763l-2.323-2.6-2.3,2.6h-4.841l4.733-5.318-4.733-5.319h4.994l2.344,2.583,2.257-2.583h4.82l-4.711,5.3,4.775,5.34Z" transform="translate(-405.117 -293.008)"/><path class="a" d="M402.6,308.11V291.355h9.3v3.735h-5.361v2.384H411.9v3.593h-5.361v3.3H411.9v3.745Z" transform="translate(-402.604 -291.355)"/></g><path class="a" d="M389.789,291.355v6.857h-.043a3.972,3.972,0,0,0-3.213-1.345,5.42,5.42,0,0,0-5.2,4.071,5.6,5.6,0,0,0-5.758-4.119,5.852,5.852,0,0,0-5.318,2.851v-2.2H365.26V295.09h5.449v-3.735h-9.9V308.11h4.45v-7.044H369.7a6.681,6.681,0,0,0-.2,1.656,5.853,5.853,0,0,0,6.078,5.948,5.724,5.724,0,0,0,5.753-3.8h-3.814a1.913,1.913,0,0,1-1.938.956,2.291,2.291,0,0,1-2.227-2.28h7.766a5.651,5.651,0,0,0,5.467,5.17,3.8,3.8,0,0,0,3.169-1.693h.043v1.085h3.923V291.355Zm-16.321,9.762a2.148,2.148,0,0,1,2.1-1.759,2.043,2.043,0,0,1,2.124,1.759Zm13.941,4.443a2.544,2.544,0,0,1-2.345-2.755c0-1.5.782-2.95,2.345-2.95,1.621,0,2.267,1.446,2.267,2.95C389.675,304.231,388.99,305.559,387.409,305.559Z" transform="translate(-360.81 -291.355)"/></g></g></svg>